<svg xmlns="http://www.w3.org/2000/svg" viewBox="0 0 130 106">
    <style>*{color: #959595}</style>
    <path d="M99.6588 102.729L99.5597 102.71L99.4609 102.731C96.4935 103.359 93.4681 103.673 90.4349 103.668H90.4339C69.0634 103.668 51.7598 88.044 51.7598 68.9715C51.7598 49.899 69.0634 34.2754 90.4339 34.2754C111.806 34.2754 129.145 49.7866 129.146 68.8555C129.099 73.2769 128.156 77.6428 126.373 81.6891C124.59 85.7363 122.004 89.3796 118.772 92.3985L118.636 92.526L118.616 92.7117L117.972 98.8492L117.972 98.8501C117.807 100.452 117.053 101.936 115.858 103.014C114.662 104.093 113.109 104.69 111.498 104.69L110.999 104.691V104.792C110.758 104.797 110.518 104.79 110.279 104.77L99.6588 102.729ZM99.0266 95.2074V95.3163L99.5691 95.27C99.9612 95.2366 100.355 95.2359 100.748 95.268L110.232 97.0439L110.766 97.144L110.821 96.6033L111.352 91.4157C111.352 91.4152 111.352 91.4147 111.352 91.4142C111.519 89.8656 112.243 88.4305 113.388 87.375C116.004 85.0225 118.103 82.1527 119.553 78.9473C121.003 75.7409 121.772 72.2685 121.811 68.7497V68.7442C121.811 53.5916 107.691 41.383 90.4339 41.383C73.1757 41.383 59.0947 53.5924 59.0947 68.7442C59.0947 83.8959 73.2134 96.1047 90.4327 96.1053C93.0122 96.1117 95.5843 95.8295 98.101 95.2641C98.4078 95.2214 98.7173 95.2025 99.0266 95.2074Z" fill="currentColor" />
    <path d="M19.1858 84.4466L19.1857 84.4467C20.1317 84.9719 21.1949 85.25 22.2769 85.2553C23.483 85.2492 24.6638 84.9082 25.6874 84.2701L25.69 84.2686L34.2522 79.0024L34.4241 78.8967L34.6212 78.9399C36.4899 79.3495 38.3809 79.65 40.2846 79.84L40.2945 79.841L40.2945 79.8411C40.7814 79.8996 41.2751 79.8598 41.7463 79.7241C42.2175 79.5884 42.6568 79.3596 43.038 79.0512L43.3525 79.44L43.038 79.0512C43.4193 78.7428 43.7348 78.3611 43.966 77.9286C44.1972 77.4961 44.3393 77.0217 44.3839 76.5334C44.4284 76.045 44.3747 75.5527 44.2257 75.0855C44.0767 74.6183 43.8355 74.1857 43.5164 73.8134C43.1973 73.441 42.8068 73.1364 42.3679 72.9176C41.929 72.6988 41.4507 72.5703 40.9613 72.5396L40.9538 72.5391L40.9463 72.5384C39.1656 72.3727 37.3976 72.0908 35.6536 71.6946L35.6506 71.6939C34.0061 71.3096 32.2764 71.5873 30.8349 72.4671L19.1858 84.4466ZM19.1858 84.4466L19.1739 84.4404C18.1434 83.9038 17.2743 83.1026 16.6557 82.1191C16.0385 81.1378 15.693 80.0103 15.6544 78.8519V70.3357V70.0878L15.4571 69.9377C10.8872 66.4618 7.16646 61.9934 4.57546 56.8697C1.98519 51.7474 0.59169 46.1039 0.500014 40.3647C0.577588 18.5312 20.5669 0.670814 45.2359 0.670814V0.671005L45.2497 0.670623C53.2562 0.449303 61.1783 2.35458 68.2086 6.19228C75.2389 10.03 81.1261 15.6629 85.2702 22.517L85.271 22.5182C85.5258 22.9371 85.6941 23.4028 85.7658 23.8877C85.8376 24.3727 85.8114 24.8672 85.6888 25.3419C85.5661 25.8165 85.3496 26.2618 85.0519 26.6514C84.7542 27.0409 84.3815 27.3668 83.9557 27.6098C83.5298 27.8528 83.0596 28.008 82.5728 28.0661C82.086 28.1243 81.5925 28.0842 81.1214 27.9483C80.6504 27.8125 80.2113 27.5835 79.8303 27.275C79.4492 26.9666 79.1339 26.5848 78.9029 26.1524L78.8958 26.1391L78.888 26.1263C75.3876 20.4262 70.4463 15.7498 64.5622 12.5685C58.6802 9.38831 52.064 7.81456 45.3802 8.00573C24.8737 8.00911 7.91069 22.4467 7.91069 40.3679H7.91059L7.91079 40.3777C8.00425 45.0985 9.18153 49.7347 11.3517 53.9281C13.5214 58.1207 16.6256 61.7586 20.4245 64.5609C21.1974 65.1443 21.8269 65.8965 22.2649 66.7602C22.7027 67.6237 22.9375 68.5757 22.9514 69.5436V76.3974V77.2894L23.7123 76.824L30.8345 72.4673L19.1858 84.4466Z" fill="currentColor" />
    <path d="M34.8855 32.7906C34.8855 35.1091 33.006 36.9885 30.6876 36.9885C28.3692 36.9885 26.4897 35.1091 26.4897 32.7906C26.4897 30.4722 28.3692 28.5928 30.6876 28.5928C33.006 28.5928 34.8855 30.4722 34.8855 32.7906Z" fill="currentColor" />
    <path d="M62.5044 32.7906C62.5044 35.1091 60.625 36.9885 58.3066 36.9885C55.9882 36.9885 54.1087 35.1091 54.1087 32.7906C54.1087 30.4722 55.9882 28.5928 58.3066 28.5928C60.625 28.5928 62.5044 30.4722 62.5044 32.7906Z" fill="currentColor" />
    <path d="M78.265 59.4247C78.265 61.4083 76.6569 63.0164 74.6733 63.0164C72.6897 63.0164 71.0816 61.4083 71.0816 59.4247C71.0816 57.4411 72.6897 55.833 74.6733 55.833C76.6569 55.833 78.265 57.4411 78.265 59.4247Z" fill="currentColor" />
    <path d="M103.649 59.4247C103.649 61.4083 102.041 63.0164 100.057 63.0164C98.0733 63.0164 96.4653 61.4083 96.4653 59.4247C96.4653 57.4411 98.0733 55.833 100.057 55.833C102.041 55.833 103.649 57.4411 103.649 59.4247Z" fill="currentColor" />
</svg>
