<svg xmlns="http://www.w3.org/2000/svg" viewBox="0 0 96 97">
    <style>*{color: #959595}</style>
    <path d="M47.7613 96.1981C37.5259 96.1981 27.2905 96.1981 17.0551 96.1981C6.71588 96.1805 0.021933 89.5261 0 79.2176C0 58.5245 0 37.8329 0 17.1428C0.0263196 6.9659 6.75536 0.258789 16.9542 0.258789C37.6414 0.258789 58.3271 0.258789 79.0114 0.258789C89.2234 0.258789 95.9349 6.93958 95.9481 17.134C95.9656 37.8212 95.9656 58.507 95.9481 79.1912C95.9481 89.5217 89.2453 96.1761 78.8974 96.1849C68.5494 96.1937 58.14 96.1981 47.7613 96.1981ZM89.5612 48.2657H89.5261C89.5261 37.8125 89.57 27.3592 89.5261 16.9015C89.491 10.5805 85.4948 6.81237 79.1737 6.59742C77.0506 6.53601 76.6558 7.29928 76.669 9.22938C76.7479 19.7572 76.6953 30.2851 76.7128 40.8129C76.7128 42.686 76.4979 44.4538 75.2389 45.954C72.8263 48.836 69.2293 48.9763 65.663 46.3444C64.0794 45.1776 62.5397 43.3133 60.8377 43.129C59.1357 42.9448 57.5697 45.0635 56.0125 46.2567C53.6349 48.0903 51.1609 48.9939 48.3052 47.5463C45.4495 46.0987 44.7214 43.5984 44.7345 40.5804C44.7959 30.1271 44.7345 19.6739 44.7959 9.22061C44.7959 7.29051 44.3968 6.58865 42.2868 6.58865C33.9523 6.72025 25.6177 6.63252 17.2832 6.64568C10.2339 6.64568 6.40882 10.462 6.40882 17.485C6.40882 37.9558 6.40882 58.4265 6.40882 78.8973C6.40882 85.951 10.2076 89.7717 17.2437 89.7761C37.7145 89.7761 58.1853 89.7761 78.6561 89.7761C85.815 89.7761 89.5656 85.9685 89.57 78.7526C89.57 68.5903 89.567 58.428 89.5612 48.2657ZM70.1285 41.6595C70.228 41.3324 70.3013 40.998 70.3479 40.6594C70.3479 29.8596 70.3479 19.0597 70.3917 8.26433C70.3917 6.78605 69.7381 6.61936 68.5406 6.63252C63.5092 6.672 58.4514 6.73341 53.4375 6.60181C51.5206 6.55356 51.1609 7.27735 51.1741 9.00128C51.2442 19.1431 51.2048 29.2849 51.2179 39.4267C51.2179 40.0496 50.9898 40.7427 51.5557 41.2779C51.7092 41.2516 51.8803 41.2779 51.9944 41.1989C53.5867 40.0365 55.1483 38.8389 56.7494 37.6896C59.434 35.7639 62.1581 35.7639 64.8427 37.6896C66.5359 38.9267 68.2028 40.2163 70.1285 41.6595Z" fill="currentColor" />
</svg>
