<svg width="115" height="115" viewBox="0 0 115 115" fill="none" xmlns="http://www.w3.org/2000/svg">
<path d="M57.5 112C87.5995 112 112 87.5995 112 57.5C112 27.4005 87.5995 3 57.5 3C27.4005 3 3 27.4005 3 57.5C3 87.5995 27.4005 112 57.5 112Z" fill="#F8BC19" stroke="#625791" stroke-width="5" stroke-linecap="round" stroke-linejoin="round"/>
<path d="M65 77C65 77 61.8125 71 56.5 71C51.1875 71 48 77 48 77" stroke="#625791" stroke-width="5" stroke-linecap="round" stroke-linejoin="round"/>
<path d="M85.4444 49.8633H65" stroke="#625791" stroke-width="5" stroke-linecap="round" stroke-linejoin="round"/>
<path d="M75.2222 58.2273L65 49.8636L75.2222 41.5" stroke="#625791" stroke-width="5" stroke-linecap="round" stroke-linejoin="round"/>
<path d="M27.9999 49.8643L48.4443 49.8643" stroke="#625791" stroke-width="5" stroke-linecap="round" stroke-linejoin="round"/>
<path d="M38.2221 41.5012L48.4443 49.8649L38.2221 58.2285" stroke="#625791" stroke-width="5" stroke-linecap="round" stroke-linejoin="round"/>
</svg>
