<svg width="113" height="112" viewBox="0 0 113 112" fill="none" xmlns="http://www.w3.org/2000/svg">
<path d="M13.705 43.1337C2.94087 32.3697 2.94087 15.3958 13.705 4.63184L59.6595 50.5856L74.9777 65.9036L98.5759 89.5014C102.716 93.6414 102.716 99.8514 98.5759 103.991C94.4359 108.131 86.9838 108.131 83.2578 103.163L66.2836 82.0495C62.1435 76.6675 54.6914 75.0115 48.0674 77.4955L13.705 43.1337Z" fill="#F8BC19" stroke="#625791" stroke-width="8" stroke-miterlimit="10" stroke-linecap="round" stroke-linejoin="round"/>
<path d="M75.1411 37.4906L97.2577 15.374" stroke="#625791" stroke-width="8" stroke-miterlimit="10" stroke-linecap="round" stroke-linejoin="round"/>
<path d="M65.6626 57.0794C67.3313 56.661 68.5828 56.661 70.2516 56.2426C75.6749 55.8241 81.9325 52.8952 88.1902 46.6189L108.632 26.1162" stroke="#625791" stroke-width="8" stroke-miterlimit="10" stroke-linecap="round" stroke-linejoin="round"/>
<path d="M37.9305 67.1904L8.7202 90.6869C4.13001 93.9846 3.71272 100.58 7.88562 104.29C12.0585 108.412 18.3179 107.588 21.6562 103.466L45.4417 74.1981" stroke="#625791" stroke-width="8" stroke-miterlimit="10" stroke-linecap="round" stroke-linejoin="round"/>
<path d="M85.8834 4L65.2413 24.1411C59.0487 30.3067 55.7459 36.4724 55.7459 41.8159C55.7459 43.4601 55.3331 44.6933 54.9202 46.3374" stroke="#625791" stroke-width="8" stroke-miterlimit="10" stroke-linecap="round" stroke-linejoin="round"/>
</svg>
