<svg width="78" height="38" viewBox="0 0 78 38" fill="none" xmlns="http://www.w3.org/2000/svg">
<path fill-rule="evenodd" clip-rule="evenodd" d="M30.8333 37.3748C30.0765 37.3756 29.3343 37.166 28.6897 36.7694C28.0451 36.3728 27.5234 35.8049 27.1828 35.129L19.8328 20.4637L15.6535 25.672C15.2692 26.149 14.7824 26.5333 14.2293 26.7966C13.6762 27.0599 13.0709 27.1954 12.4583 27.193H4.29166C3.21195 27.193 2.17645 26.7641 1.41297 26.0007C0.649498 25.2372 0.220581 24.2017 0.220581 23.122C0.220581 22.0422 0.649498 21.0068 1.41297 20.2433C2.17645 19.4798 3.21195 19.0509 4.29166 19.0509H10.4963L17.438 10.4003C17.8658 9.865 18.4216 9.44597 19.054 9.18185C19.6864 8.91774 20.3751 8.81704 21.0566 8.88904C21.7381 8.96104 22.3906 9.20342 22.9538 9.59384C23.5171 9.98426 23.973 10.5102 24.2796 11.1231L29.7921 22.1195L35.0759 3.68325C35.3068 2.87751 35.78 2.16232 36.4313 1.63479C37.0827 1.10727 37.8806 0.792959 38.7167 0.734542C39.5528 0.676124 40.3867 0.876427 41.1051 1.30826C41.8234 1.74009 42.3915 2.38252 42.7322 3.14834L49.8229 19.0529H55.3333C56.4131 19.0529 57.4485 19.4818 58.212 20.2453C58.9755 21.0088 59.4044 22.0443 59.4044 23.124C59.4044 24.2037 58.9755 25.2392 58.212 26.0027C57.4485 26.7662 56.4131 27.1951 55.3333 27.1951H47.1667C46.3779 27.1955 45.6058 26.9674 44.9439 26.5384C44.2819 26.1095 43.7584 25.4979 43.4365 24.7778L39.8371 16.7009L34.7595 34.4185C34.5318 35.2074 34.0717 35.9093 33.439 36.4327C32.8064 36.9561 32.0307 37.2766 31.2131 37.3524C31.0845 37.3748 30.9579 37.3748 30.8333 37.3748Z" fill="#625791"/>
<path fill-rule="evenodd" clip-rule="evenodd" d="M65.5417 35.3335C63.1189 35.3335 60.7505 34.6151 58.736 33.269C56.7215 31.923 55.1513 30.0098 54.2242 27.7714C53.297 25.533 53.0544 23.0699 53.5271 20.6936C53.9997 18.3174 55.1664 16.1346 56.8796 14.4214C58.5928 12.7082 60.7756 11.5416 63.1518 11.0689C65.5281 10.5962 67.9912 10.8388 70.2296 11.766C72.468 12.6932 74.3812 14.2633 75.7272 16.2778C77.0732 18.2923 77.7917 20.6607 77.7917 23.0835C77.7917 26.3324 76.5011 29.4482 74.2038 31.7456C71.9064 34.0429 68.7906 35.3335 65.5417 35.3335ZM65.5417 17.5363C64.4438 17.5395 63.3715 17.8681 62.4603 18.4806C61.549 19.093 60.8398 19.9618 60.4222 20.9772C60.0045 21.9925 59.8972 23.1089 60.1139 24.1853C60.3305 25.2616 60.8613 26.2496 61.6392 27.0243C62.4171 27.7991 63.4072 28.3259 64.4844 28.5382C65.5616 28.7504 66.6775 28.6386 67.6912 28.2169C68.7049 27.7952 69.5708 27.0824 70.1796 26.1687C70.7883 25.255 71.1126 24.1814 71.1114 23.0835C71.1076 21.6096 70.5188 20.1974 69.4745 19.1573C68.4302 18.1171 67.0156 17.5341 65.5417 17.5363Z" fill="#F39B03"/>
</svg>
