<svg xmlns="http://www.w3.org/2000/svg" viewBox="0 0 95 95">
    <style>*{color: #959595}</style>
    <path d="M94.2151 57.7235C94.2151 62.8946 94.2691 68.0656 94.2151 73.2322C94.1904 78.7707 91.9842 84.0764 88.0746 87.9995C84.165 91.9226 78.8669 94.1471 73.3285 94.1908C71.0082 94.2313 68.6835 94.2268 66.3588 94.1908C61.1472 94.1323 58.0221 91.0432 57.9501 85.7597C57.8917 81.5644 57.9501 77.3691 57.9501 73.1693C57.9501 68.9695 55.5804 66.6582 51.3986 66.6042C48.6287 66.5683 45.8543 66.5413 43.0844 66.6042C39.3208 66.6987 36.9421 69.1313 36.9106 72.859C36.8791 77.0543 36.9106 81.2496 36.9106 85.4494C36.8702 91.0971 33.7855 94.1503 28.1198 94.1863C26.0244 94.1863 23.9245 94.2088 21.8246 94.1863C9.89964 94.0289 0.7401 84.9548 0.641175 73.0523C0.510775 62.8226 0.587216 52.5659 0.55574 42.2957C0.55574 35.6498 3.1098 30.119 8.19993 25.9776C17.0402 18.8101 25.9614 11.7324 35.0131 4.84366C42.0997 -0.552239 52.9634 -0.408348 60.0276 5.0505C68.8049 11.8284 77.5103 18.6931 86.1437 25.6449C91.4767 29.9256 94.2376 35.5373 94.1926 42.4621C94.2016 47.5342 94.2196 52.6289 94.2151 57.7235ZM6.74304 57.5122C6.74304 62.6787 6.6666 67.8543 6.74304 73.0164C6.79329 76.9584 8.37152 80.7271 11.1453 83.5285C13.9191 86.33 17.6719 87.9456 21.6132 88.035C23.6367 88.0934 25.6602 87.9855 27.6791 88.0709C29.6981 88.1564 30.4805 87.2705 30.44 85.2561C30.3546 81.1417 30.3591 77.0183 30.44 72.8995C30.5704 65.7634 35.728 60.6058 42.8191 60.4709C45.6655 60.4214 48.5118 60.4394 51.3626 60.4709C59.2856 60.5429 64.3173 65.6465 64.3533 73.6504C64.3533 77.4725 64.3533 81.2946 64.3533 85.1122C64.3533 87.7427 64.677 88.035 67.375 88.0619C69.0972 88.0619 70.8194 88.0619 72.5416 88.0619C81.4313 87.9315 87.9693 81.4205 88.0278 72.5128C88.0908 62.6203 88.0278 52.7278 88.0503 42.8353C88.0503 37.6013 85.9729 33.4284 81.8765 30.2044C73.6477 23.7143 65.4265 17.2198 57.2127 10.7207C51.0164 5.87338 43.723 5.89586 37.5536 10.7702C29.3159 17.2542 21.0826 23.7458 12.8539 30.2449C8.80697 33.3925 6.73854 37.5293 6.73854 42.6689C6.73854 47.6152 6.74004 52.5629 6.74304 57.5122Z" fill="currentColor"/>
</svg>
