<svg width="31" height="41" viewBox="0 0 31 41" fill="none" xmlns="http://www.w3.org/2000/svg">
<path d="M27.5 14H25V9.5C25 6.98044 23.9991 4.56408 22.2175 2.78249C20.4359 1.00089 18.0196 0 15.5 0C12.9804 0 10.5641 1.00089 8.78249 2.78249C7.00089 4.56408 6 6.98044 6 9.5V14H3.5C2.57174 14 1.6815 14.3687 1.02513 15.0251C0.368749 15.6815 0 16.5717 0 17.5L0 37.5C0 38.4283 0.368749 39.3185 1.02513 39.9749C1.6815 40.6312 2.57174 41 3.5 41H27.5C28.4283 41 29.3185 40.6312 29.9749 39.9749C30.6313 39.3185 31 38.4283 31 37.5V17.5C31 16.5717 30.6313 15.6815 29.9749 15.0251C29.3185 14.3687 28.4283 14 27.5 14ZM8.8 10V9.5C8.8 7.72305 9.50589 6.01888 10.7624 4.76238C12.0189 3.50589 13.723 2.8 15.5 2.8C17.277 2.8 18.9811 3.50589 20.2376 4.76238C21.4941 6.01888 22.2 7.72305 22.2 9.5V14H8.81L8.8 10ZM28 38H3V17H28V38Z" fill="#625791"/>
</svg>
