<svg width="262" height="303" viewBox="0 0 262 303" fill="none" xmlns="http://www.w3.org/2000/svg">
<path d="M245.48 241.35C239.504 237.444 234.929 231.734 232.42 225.05C231.528 222.706 230.809 220.299 230.27 217.85C225.78 188.25 222.1 158.85 221.27 129.04C220.85 113.81 217.68 99.34 209.27 82.25C195.27 57.39 173.21 39.49 142.38 35.55C139.31 35.15 136.15 34.91 132.9 34.8C132.21 34.8 131.52 34.8 130.83 34.8C130.14 34.8 129.44 34.8 128.75 34.8C125.5 34.91 122.34 35.15 119.27 35.55C88.44 39.49 66.34 57.39 52.38 82.25C44 99.34 40.81 113.81 40.39 129C39.57 158.82 35.89 188.21 31.39 217.81C30.8507 220.259 30.1321 222.666 29.24 225.01C26.7313 231.694 22.1563 237.404 16.18 241.31C15.0329 242.122 14.1066 243.208 13.485 244.469C12.8634 245.73 12.5661 247.125 12.62 248.53C12.52 254.28 16.54 257.88 23.44 257.96C59.24 258.4 95.0367 258.827 130.83 259.24C166.617 258.813 202.41 258.387 238.21 257.96C245.11 257.88 249.13 254.28 249.03 248.53C249.078 247.133 248.779 245.746 248.16 244.493C247.54 243.24 246.619 242.16 245.48 241.35ZM94 181.65C91.8244 181.65 89.6977 181.005 87.8887 179.796C86.0798 178.587 84.6699 176.869 83.8373 174.859C83.0048 172.85 82.7869 170.638 83.2114 168.504C83.6358 166.37 84.6834 164.41 86.2218 162.872C87.7602 161.333 89.7202 160.286 91.854 159.861C93.9878 159.437 96.1995 159.655 98.2095 160.487C100.219 161.32 101.937 162.73 103.146 164.539C104.355 166.348 105 168.474 105 170.65C105 173.567 103.841 176.365 101.778 178.428C99.7153 180.491 96.9174 181.65 94 181.65ZM131.15 212.36C118.44 212.36 108.84 201.95 108.38 189.59C108.15 183.21 118.05 183.24 118.28 189.59C118.89 206.2 143.41 206.2 144.02 189.59C144.26 183.23 154.15 183.22 153.92 189.59C153.44 202 143.84 212.36 131.12 212.36H131.15ZM168.31 181.65C166.134 181.65 164.008 181.005 162.199 179.796C160.39 178.587 158.98 176.869 158.147 174.859C157.315 172.85 157.097 170.638 157.521 168.504C157.946 166.37 158.993 164.41 160.532 162.872C162.07 161.333 164.03 160.286 166.164 159.861C168.298 159.437 170.51 159.655 172.52 160.487C174.53 161.32 176.247 162.73 177.456 164.539C178.665 166.348 179.31 168.474 179.31 170.65C179.31 172.097 179.024 173.53 178.47 174.866C177.915 176.203 177.102 177.417 176.078 178.439C175.053 179.461 173.837 180.27 172.499 180.821C171.161 181.372 169.727 181.654 168.28 181.65H168.31Z" fill="#F8BC19"/>
<path d="M105 170.66C105 172.836 104.355 174.962 103.146 176.771C101.937 178.58 100.22 179.99 98.2095 180.823C96.1995 181.655 93.9878 181.873 91.854 181.449C89.7202 181.024 87.7602 179.977 86.2218 178.438C84.6834 176.9 83.6358 174.94 83.2114 172.806C82.7869 170.672 83.0048 168.46 83.8373 166.45C84.6699 164.44 86.0798 162.723 87.8887 161.514C89.6977 160.305 91.8244 159.66 94 159.66C96.9174 159.66 99.7153 160.819 101.778 162.882C103.841 164.945 105 167.743 105 170.66Z" fill="#625791"/>
<path d="M179.27 170.66C179.27 172.836 178.625 174.962 177.416 176.771C176.207 178.58 174.49 179.99 172.48 180.823C170.47 181.655 168.258 181.873 166.124 181.449C163.99 181.024 162.03 179.977 160.492 178.438C158.953 176.9 157.906 174.94 157.481 172.806C157.057 170.672 157.275 168.46 158.107 166.45C158.94 164.44 160.35 162.723 162.159 161.514C163.968 160.305 166.094 159.66 168.27 159.66C171.187 159.66 173.985 160.819 176.048 162.882C178.111 164.945 179.27 167.743 179.27 170.66Z" fill="#625791"/>
<path d="M153.89 189.59C153.44 201.96 143.89 212.36 131.12 212.36C118.35 212.36 108.81 202 108.35 189.59C108.12 183.21 118.02 183.24 118.25 189.59C118.86 206.2 143.38 206.2 143.99 189.59C144.23 183.23 154.12 183.22 153.89 189.59Z" fill="#625791"/>
<path d="M131.53 290.29C132.36 290.28 133.188 290.22 134.01 290.11C133.19 290.18 132.36 290.26 131.53 290.29ZM130.89 273.37H134.01H130.89ZM130.89 22C131.89 22 133 22 134.06 22.08V22C133 22 131.89 22 130.84 22H130.89ZM130.89 0.0599831C131.933 0.125321 132.971 0.248847 134 0.429983V-1.69482e-05C132.95 -0.0396651 131.898 -0.0196328 130.85 0.0599831H130.89Z" fill="black"/>
<path d="M252.23 231C245.8 227.67 244.23 222.68 242.87 216.67C236.44 187.74 234.37 158.33 233.87 128.83C233.08 79.26 200.97 38.58 158.48 26.17C158.48 25.79 158.42 25.47 158.38 25.17C157.781 20.6065 156.088 16.2553 153.445 12.4874C150.802 8.7194 147.287 5.64631 143.2 3.53C140.321 2.00664 137.214 0.959746 134 0.429998C132.954 0.246999 131.899 0.123467 130.84 0.0599976C129.781 0.123467 128.725 0.246999 127.68 0.429998C124.469 0.96079 121.366 2.00766 118.49 3.53C114.388 5.64394 110.86 8.72055 108.208 12.4963C105.555 16.2721 103.858 20.6345 103.26 25.21C103.26 25.48 103.19 25.8 103.16 26.21C60.65 38.59 28.54 79.27 27.76 128.84C27.3 158.34 25.23 187.75 18.76 216.68C17.41 222.68 15.83 227.68 9.39998 231.01C1.32998 235.19 -1.70002 245.87 0.829982 254.84C2.02406 259.17 4.55735 263.01 8.0672 265.812C11.577 268.615 15.8835 270.234 20.37 270.44C28.75 270.85 37.18 270.92 45.57 270.75L95.79 271.35C95.79 271.65 95.87 271.9 95.9 272.12C97.71 283.74 103.75 292.85 112.9 297.79L113.04 297.87C118.307 300.576 124.12 302.05 130.04 302.18H131.47C137.39 302.05 143.203 300.576 148.47 297.87L148.61 297.79C157.76 292.85 163.8 283.74 165.61 272.12C165.61 271.9 165.68 271.65 165.72 271.35L215.94 270.75C224.33 270.92 232.76 270.85 241.14 270.44C245.626 270.234 249.933 268.615 253.443 265.812C256.953 263.01 259.486 259.17 260.68 254.84C263.33 245.87 260.3 235.19 252.23 231ZM124 14C126.126 12.8898 128.451 12.2102 130.84 12C133.226 12.2117 135.547 12.8913 137.67 14C141.577 16.0084 144.545 19.4641 145.94 23.63L140.17 22.5C138.17 22.28 136.08 22.13 134.04 22.04C132.98 22.04 131.92 21.96 130.87 21.96C129.82 21.96 128.75 21.96 127.69 22.04C125.69 22.13 123.6 22.28 121.56 22.5L115.79 23.63C117.171 19.4747 120.115 16.0206 124 14ZM143.16 287.28C140.296 288.737 137.199 289.681 134.01 290.07C133.188 290.18 132.36 290.24 131.53 290.25H130.14C129.31 290.24 128.482 290.18 127.66 290.07C124.471 289.681 121.374 288.737 118.51 287.28C113.46 284.52 109.88 279.55 108.25 273.09C114.917 273.19 121.387 273.263 127.66 273.31H130.78H130.89H134.01C140.29 273.257 146.76 273.183 153.42 273.09C151.79 279.59 148.21 284.56 143.16 287.32V287.28ZM238.22 258C202.433 258.44 166.64 258.867 130.84 259.28C95.04 258.853 59.2433 258.427 23.45 258C16.55 257.92 12.53 254.32 12.63 248.57C12.576 247.165 12.8733 245.77 13.495 244.509C14.1166 243.248 15.0429 242.162 16.19 241.35C22.1663 237.444 26.7413 231.734 29.25 225.05C30.1421 222.706 30.8607 220.299 31.4 217.85C35.89 188.25 39.57 158.85 40.4 129.04C40.82 113.81 44 99.34 52.4 82.25C66.4 57.39 88.46 39.49 119.29 35.55C122.36 35.15 125.52 34.91 128.77 34.8C129.46 34.8 130.15 34.8 130.85 34.8C131.55 34.8 132.23 34.8 132.92 34.8C136.17 34.91 139.33 35.15 142.4 35.55C173.23 39.49 195.33 57.39 209.29 82.25C217.7 99.34 220.87 113.81 221.29 129.04C222.11 158.86 225.79 188.25 230.29 217.85C230.829 220.299 231.548 222.706 232.44 225.05C234.949 231.734 239.524 237.444 245.5 241.35C246.647 242.162 247.573 243.248 248.195 244.509C248.817 245.77 249.114 247.165 249.06 248.57C249.14 254.32 245.12 257.92 238.22 258Z" fill="#625791"/>
<path d="M145.94 23.67L140.17 22.54C138.17 22.32 136.08 22.17 134.04 22.08C132.98 22.08 131.92 22 130.87 22C129.82 22 128.75 22 127.69 22.08C125.69 22.17 123.6 22.32 121.56 22.54L115.79 23.67C117.162 19.4998 120.108 16.03 124 14C126.126 12.8898 128.451 12.2102 130.84 12C133.226 12.2117 135.547 12.8913 137.67 14C141.585 16.0178 144.554 19.4892 145.94 23.67Z" fill="#F8BC19"/>
<path d="M153.42 273.13C151.79 279.59 148.21 284.56 143.16 287.32C140.296 288.777 137.199 289.721 134.01 290.11C133.19 290.22 132.36 290.3 131.53 290.33H130.14C129.31 290.32 128.482 290.26 127.66 290.15C124.471 289.761 121.374 288.817 118.51 287.36C113.46 284.6 109.88 279.63 108.25 273.17C114.917 273.27 121.387 273.343 127.66 273.39H130.78H130.89H134.01C140.29 273.31 146.76 273.223 153.42 273.13Z" fill="#F39B03"/>
</svg>
