<svg width="42" height="30" viewBox="0 0 42 30" fill="none" xmlns="http://www.w3.org/2000/svg">
<path d="M39.75 10.3125C39.3356 10.3125 38.9382 10.4771 38.6451 10.7701C38.3521 11.0632 38.1875 11.4606 38.1875 11.875V24.375C38.1875 24.7894 38.0229 25.1868 37.7299 25.4799C37.4368 25.7729 37.0394 25.9375 36.625 25.9375H5.375C4.9606 25.9375 4.56317 25.7729 4.27015 25.4799C3.97712 25.1868 3.8125 24.7894 3.8125 24.375V11.875C3.8125 11.4606 3.64788 11.0632 3.35485 10.7701C3.06183 10.4771 2.6644 10.3125 2.25 10.3125C1.8356 10.3125 1.43817 10.4771 1.14515 10.7701C0.85212 11.0632 0.6875 11.4606 0.6875 11.875V24.375C0.688594 25.6178 1.18317 26.8093 2.0625 27.6875C2.94073 28.5668 4.13222 29.0614 5.375 29.0625H36.625C37.8678 29.0614 39.0593 28.5668 39.9375 27.6875C40.8168 26.8093 41.3114 25.6178 41.3125 24.375V11.875C41.3125 11.4606 41.1479 11.0632 40.8549 10.7701C40.5618 10.4771 40.1644 10.3125 39.75 10.3125Z" fill="#625791"/>
<path d="M20.0625 19.375C20.333 19.5778 20.6619 19.6875 21 19.6875C21.3381 19.6875 21.6671 19.5778 21.9375 19.375L40.3906 5.53125C40.6785 5.31417 40.8825 5.00422 40.9679 4.65394C41.0533 4.30366 41.015 3.93462 40.8594 3.60938C40.6267 3.12863 40.3151 2.69027 39.9375 2.3125C39.0593 1.43317 37.8678 0.938594 36.625 0.9375H5.37501C4.13223 0.938594 2.94075 1.43317 2.06251 2.3125C1.68494 2.69027 1.37334 3.12863 1.14064 3.60938C0.98504 3.93462 0.946708 4.30366 1.03214 4.65394C1.11757 5.00422 1.32152 5.31417 1.60939 5.53125L20.0625 19.375ZM5.37501 4.0625H36.625C36.77 4.03968 36.9176 4.03968 37.0625 4.0625L21 16.1719L4.93751 4.0625C5.08245 4.03968 5.23007 4.03968 5.37501 4.0625Z" fill="#625791"/>
</svg>
