<svg width="167" height="92" viewBox="0 0 167 92" fill="none" xmlns="http://www.w3.org/2000/svg">
<path d="M38.0398 19.104C38.0374 22.8751 36.9195 26.5608 34.8276 29.695C32.7356 32.8292 29.7636 35.2712 26.2872 36.7121C22.8109 38.153 18.9864 38.5281 15.2973 37.79C11.6083 37.052 8.22045 35.2338 5.56218 32.5655C2.90391 29.8972 1.09461 26.4987 0.363093 22.7995C-0.368426 19.1004 0.0106858 15.2669 1.45249 11.7838C2.89429 8.30065 5.33402 5.32435 8.46317 3.23125C11.5923 1.13814 15.2703 0.0222424 19.0321 0.0246621C21.5301 0.0254649 24.0034 0.519692 26.3107 1.4791C28.6181 2.43851 30.7142 3.8443 32.4794 5.61614C34.2446 7.38798 35.6442 9.49114 36.5983 11.8054C37.5524 14.1197 38.0422 16.5998 38.0398 19.104Z" fill="#F8BC19"/>
<path d="M166.595 19.104C166.594 22.8766 165.477 26.564 163.385 29.7001C161.293 32.8361 158.32 35.2798 154.843 36.7221C151.366 38.1644 147.54 38.5405 143.849 37.8029C140.158 37.0653 136.769 35.247 134.109 32.5781C131.449 29.9092 129.639 26.5096 128.907 22.8091C128.174 19.1086 128.553 15.2736 129.995 11.789C131.437 8.30436 133.878 5.32675 137.008 3.2327C140.138 1.13865 143.818 0.0222417 147.581 0.0246621C150.08 0.024661 152.554 0.518295 154.862 1.47735C157.17 2.4364 159.267 3.84206 161.032 5.61398C162.798 7.38589 164.198 9.48932 165.153 11.804C166.107 14.1187 166.597 16.5993 166.595 19.104Z" fill="#F8BC19"/>
<path d="M122.689 51.9329C121.908 73.3865 105.299 91.4194 83.2945 91.4194C61.2898 91.4194 44.6992 73.3681 43.9057 51.9329C43.509 40.8696 60.6366 40.9186 61.0334 51.9329C62.0894 80.7416 104.506 80.7416 105.592 51.9329C105.977 40.9002 123.086 40.888 122.689 51.9329Z" fill="#F39B03"/>
</svg>
