<svg width="285" height="230" viewBox="0 0 285 230" fill="none" xmlns="http://www.w3.org/2000/svg">
    <path
        d="M75 285.24C69.2042 286.754 63.2296 287.474 57.24 287.38C32.62 287.38 18.71 275.18 18.71 250.99V202.62H2.88V179.07H18.72V152.31H46.33V179.07H72.45V202.62H46.33V248.21C46.33 258.48 51.47 262.55 63.24 262.55C66.45 262.55 70.31 262.33 75.01 261.91L75 285.24Z"
        fill="white" />
    <path
        d="M131.09 176.71C160.42 176.71 181.4 199.4 181.4 231.94C181.4 264.26 160.4 287.38 131.09 287.38C101.78 287.38 80.79 264.26 80.79 231.94C80.79 199.19 101.77 176.71 131.09 176.71ZM131.09 201.97C117.61 201.97 109.09 213.1 109.09 232.15C109.09 251.2 117.44 262.15 131.09 262.15C144.58 262.15 153.09 251.02 153.09 232.15C153.09 213.28 144.58 202 131.09 202V201.97Z"
        fill="white" />
    <path
        d="M285 285H257.38V219.31C257.38 208.82 250.53 201.76 240.47 201.76C230.41 201.76 223.35 209.04 223.35 219.31V285H195.74V179.07H221V187.85C228.07 180.35 237.27 176.71 248.62 176.71C270.88 176.71 285 192.13 285 215.89V285Z"
        fill="white" />
    <path
        d="M62.32 31.18C62.3161 37.3429 60.4847 43.3662 57.0575 48.4882C53.6303 53.6102 48.7612 57.601 43.0659 59.9557C37.3707 62.3105 31.1051 62.9236 25.0614 61.7174C19.0177 60.5112 13.4674 57.5399 9.11243 53.1793C4.75742 48.8187 1.79329 43.2646 0.59485 37.2194C-0.603586 31.1742 0.0175064 24.9093 2.37959 19.2171C4.74167 13.5249 8.73864 8.66092 13.8651 5.2403C18.9915 1.81969 25.0171 -0.00394794 31.18 6.41732e-06C35.2727 3.04083e-06 39.3253 0.806787 43.106 2.37422C46.8867 3.94165 50.3213 6.23898 53.2135 9.13484C56.1056 12.0307 58.3985 15.4683 59.9611 19.251C61.5237 23.0337 62.3253 27.0873 62.32 31.18Z"
        fill="#F8BC19" />
    <path
        d="M272.93 31.18C272.928 37.3453 271.098 43.3715 267.671 48.4965C264.244 53.6215 259.374 57.6151 253.677 59.9721C247.98 62.3292 241.712 62.9438 235.666 61.7384C229.619 60.5329 224.066 57.5615 219.709 53.1999C215.351 48.8383 212.385 43.2825 211.186 37.235C209.986 31.1876 210.607 24.9202 212.969 19.2256C215.332 13.5309 219.33 8.66484 224.458 5.24268C229.587 1.82052 235.615 -0.00394916 241.78 6.41835e-06C245.873 4.52008e-06 249.926 0.806716 253.707 2.37403C257.489 3.94134 260.924 6.23851 263.817 9.13423C266.71 12.03 269.004 15.4674 270.567 19.2502C272.131 23.033 272.934 27.0868 272.93 31.18Z"
        fill="#F8BC19" />
    <path
        d="M201 84.8302C199.72 119.88 172.51 149.36 136.46 149.36C100.41 149.36 73.23 119.86 71.93 84.8302C71.28 66.7402 99.34 66.8302 99.99 84.8302C101.72 131.9 171.21 131.9 172.99 84.8302C173.62 66.8002 201.65 66.7702 201 84.8302Z"
        fill="#F39B03" />
</svg>
