<svg width="105" height="58" viewBox="0 0 105 58" fill="none" xmlns="http://www.w3.org/2000/svg">
<path d="M23.8355 11.9347C23.834 14.2937 23.1335 16.5992 21.8228 18.5598C20.512 20.5203 18.6497 22.0478 16.4714 22.9492C14.2932 23.8505 11.8967 24.0852 9.58522 23.6235C7.27369 23.1618 5.15088 22.0245 3.48523 20.3554C1.81957 18.6863 0.685877 16.5603 0.227512 14.2464C-0.230853 11.9325 0.00669565 9.53451 0.910119 7.3557C1.81354 5.1769 3.34226 3.31513 5.30297 2.00582C7.26367 0.696519 9.5683 -0.00151115 11.9254 2.45635e-06C13.4907 1.16393e-06 15.0407 0.308812 16.4867 0.908776C17.9327 1.50874 19.2464 2.38809 20.3525 3.49653C21.4587 4.60497 22.3357 5.92076 22.9333 7.36866C23.5309 8.81656 23.8375 10.3682 23.8355 11.9347Z" fill="white"/>
<path d="M104.387 11.9347C104.387 14.2946 103.687 16.6012 102.376 18.5629C101.065 20.5246 99.2024 22.0532 97.0235 22.9554C94.8446 23.8576 92.4473 24.0929 90.1348 23.6315C87.8223 23.1701 85.6985 22.0327 84.0319 20.3632C82.3653 18.6938 81.2309 16.5672 80.7721 14.2524C80.3132 11.9376 80.5506 9.53868 81.4542 7.35895C82.3578 5.17922 83.887 3.31663 85.8485 2.00673C87.8099 0.696839 90.1154 -0.00151162 92.4734 2.45674e-06C94.0389 1.73014e-06 95.5891 0.308785 97.0353 0.908702C98.4815 1.50862 99.7954 2.38791 100.902 3.4963C102.008 4.60469 102.886 5.92045 103.484 7.36837C104.082 8.81629 104.389 10.368 104.387 11.9347Z" fill="white"/>
<path d="M27.511 51.9896C28.0006 38.5736 38.4076 27.2896 52.1956 27.2896C65.9836 27.2896 76.3792 38.5812 76.8764 51.9896C77.125 58.9139 66.3929 58.8795 66.1443 51.9896C65.4826 33.9727 38.9048 33.9727 38.224 51.9896C37.983 58.8909 27.2624 58.9024 27.511 51.9896Z" fill="white"/>
</svg>
