<svg width="118" height="65" viewBox="0 0 118 65" fill="none" xmlns="http://www.w3.org/2000/svg">
<path d="M26.8903 13.4871C26.8886 16.1529 26.0984 18.7584 24.6196 20.9739C23.1408 23.1895 21.0398 24.9157 18.5824 25.9343C16.125 26.9529 13.4214 27.2181 10.8137 26.6963C8.2059 26.1746 5.81103 24.8893 3.9319 23.0031C2.05277 21.1169 0.77378 18.7144 0.25667 16.0995C-0.26044 13.4846 0.00755377 10.7747 1.02676 8.31251C2.04597 5.85029 3.77061 3.74635 5.9826 2.26673C8.1946 0.78712 10.7946 -0.00170771 13.4538 2.77586e-06C15.2196 0.000570231 16.968 0.349939 18.599 1.02815C20.2301 1.70635 21.7119 2.7001 22.9597 3.95261C24.2075 5.20512 25.1969 6.69184 25.8713 8.32782C26.5457 9.9638 26.892 11.717 26.8903 13.4871Z" fill="#625791"/>
<path d="M117.766 13.4872C117.765 16.154 116.976 18.7607 115.497 20.9775C114.018 23.1944 111.917 24.9218 109.459 25.9414C107 26.961 104.296 27.2268 101.687 26.7054C99.0781 26.184 96.682 24.8987 94.8019 23.012C92.9217 21.1254 91.6419 18.7222 91.1243 16.1063C90.6066 13.4904 90.8745 10.7794 91.8939 8.31618C92.9133 5.85292 94.6385 3.74804 96.8513 2.26776C99.0641 0.787482 101.665 -0.00170824 104.325 2.77631e-06C106.091 1.95519e-06 107.84 0.348951 109.472 1.0269C111.103 1.70485 112.586 2.69852 113.834 3.95108C115.082 5.20365 116.072 6.69056 116.747 8.32682C117.421 9.96308 117.768 11.7166 117.766 13.4872Z" fill="#625791"/>
<path d="M86.7286 36.6943C86.1763 51.8598 74.4355 64.6073 58.8804 64.6073C43.3253 64.6073 31.5975 51.8468 31.0365 36.6943C30.7561 28.8737 42.8636 28.9083 43.1441 36.6943C43.8905 57.0591 73.8746 57.0591 74.6427 36.6943C74.9145 28.8953 87.0091 28.8866 86.7286 36.6943Z" fill="#625791"/>
</svg>
