<svg width="74" height="88" viewBox="0 0 74 88" fill="none" xmlns="http://www.w3.org/2000/svg">
<path d="M62.6387 44.5963C62.3299 44.2896 61.9636 44.0468 61.5609 43.8816C61.1582 43.7165 60.727 43.6323 60.2917 43.6338C59.8565 43.6353 59.4258 43.7226 59.0243 43.8906C58.6227 44.0586 58.2582 44.304 57.9516 44.6128C57.6449 44.9217 57.402 45.2879 57.2369 45.6906C57.0717 46.0933 56.9875 46.5246 56.9891 46.9599C56.9906 47.3951 57.0779 47.8258 57.2459 48.2273C57.4138 48.6288 57.6593 48.9933 57.9681 49.3C60.771 52.0733 62.996 55.375 64.5141 59.014C66.0323 62.653 66.8135 66.557 66.8125 70.5C66.8125 74.5413 55.1856 80.4375 37 80.4375C18.8144 80.4375 7.18749 74.5413 7.18749 70.5C7.18224 66.583 7.94893 62.7034 9.44376 59.0828C10.9386 55.4623 13.1323 52.1718 15.8994 49.3994C16.5163 48.7788 16.8626 47.9392 16.8626 47.0641C16.8626 46.189 16.5163 45.3494 15.8994 44.7288C15.2787 44.1118 14.4392 43.7655 13.5641 43.7655C12.6889 43.7655 11.8494 44.1118 11.2287 44.7288C7.83378 48.1048 5.1428 52.1211 3.31183 56.545C1.48087 60.9689 0.546363 65.7122 0.562492 70.5C0.562492 81.2657 19.3444 87.0625 37 87.0625C54.6556 87.0625 73.4375 81.2657 73.4375 70.5C73.4502 65.6812 72.5017 60.9082 70.6475 56.4604C68.7933 52.0125 66.0706 47.9792 62.6387 44.5963Z" fill="#625791"/>
<path d="M37 47.3125C41.5861 47.3125 46.0691 45.9526 49.8823 43.4047C53.6954 40.8568 56.6674 37.2354 58.4225 32.9985C60.1775 28.7615 60.6367 24.0993 59.742 19.6014C58.8473 15.1034 56.6389 10.9718 53.396 7.72897C50.1532 4.48614 46.0216 2.27775 41.5237 1.38305C37.0257 0.488357 32.3635 0.947547 28.1265 2.70255C23.8896 4.45756 20.2682 7.42956 17.7203 11.2427C15.1724 15.0559 13.8125 19.539 13.8125 24.125C13.8125 30.2747 16.2555 36.1725 20.604 40.521C24.9525 44.8695 30.8503 47.3125 37 47.3125ZM37 7.56251C40.2758 7.56251 43.4779 8.53388 46.2016 10.3538C48.9253 12.1737 51.0482 14.7604 52.3018 17.7868C53.5553 20.8132 53.8833 24.1434 53.2443 27.3562C52.6052 30.569 51.0278 33.5202 48.7115 35.8365C46.3951 38.1528 43.444 39.7302 40.2312 40.3693C37.0184 41.0083 33.6882 40.6803 30.6618 39.4268C27.6354 38.1732 25.0487 36.0503 23.2288 33.3266C21.4089 30.6029 20.4375 27.4008 20.4375 24.125C20.4375 19.7324 22.1825 15.5196 25.2885 12.4136C28.3946 9.30748 32.6074 7.56251 37 7.56251Z" fill="#625791"/>
</svg>
